<svg width="340" height="125" enable-background="new -128 471.325 360 150" version="1.1" viewBox="-128 471.32 340 125" xml:space="preserve" xmlns="http://www.w3.org/2000/svg" xmlns:xlink="http://www.w3.org/1999/xlink"><defs><linearGradient id="a" x1="-.18" x2="49.1" y1="12.56" y2="12.56" gradientUnits="userSpaceOnUse"><stop stop-color="#2d388a" offset="0"/><stop stop-color="#00aeef" offset="1"/></linearGradient><linearGradient id="c" x1="-126.58" x2="238.14" y1="526.08" y2="526.08" gradientTransform="matrix(.93675 0 0 1.0779 -.88728 -32.878)" gradientUnits="userSpaceOnUse" xlink:href="#a"/><linearGradient id="b" x1="-126.58" x2="238.14" y1="526.08" y2="526.08" gradientTransform="matrix(.93675 0 0 1.0779 -1.4292 -32.878)" gradientUnits="userSpaceOnUse" xlink:href="#a"/></defs>


<g><path d="m-111.44 486.98v33.345h0.0911l30.711-33.345h9.3864l-32.533 33.66 34.356 40.581h-9.6597l-32.26-39.532h-0.0911v39.532h-6.5613v-74.24z" fill="url(#c)" stroke-width="2.4438"/><g fill="url(#b)" stroke-width="2.4438"><path d="m-28.249 561.22h-5.9234q-0.36452-5.243-0.36452-8.3888h-0.18226q-1.7315 4.1944-5.9234 6.9207-4.1008 2.7264-8.6573 2.7264-7.9283 0-12.12-5.4527-4.1008-5.4527-4.1008-14.785v-30.095h6.1968v27.159q0 8.2839 2.5516 12.793 2.6428 4.4041 9.0218 4.4041 5.3767 0 9.113-4.9284 3.8274-5.0332 3.8274-14.261v-25.166h6.1968v38.274q0 6.2916 0.36452 10.801z"/><path d="m-6.7595 552.94v33.45h-6.1968v-74.24h6.1968v8.4936h0.27339q2.5516-4.6138 6.9259-7.1304 4.3742-2.6215 9.113-2.6215 9.842 0 15.948 7.445 6.1057 7.3402 6.1057 18.35t-6.1057 18.455q-6.1057 7.3402-15.948 7.3402-4.6476 0-9.0218-2.5166-4.3742-2.5166-7.017-7.0256zm27.43-2.0972q4.3742-5.6624 4.3742-14.156 0-8.4936-4.3742-14.156-4.2831-5.6624-11.756-5.6624-7.1081 0-11.756 5.6624-4.6476 5.6624-4.6476 14.156 0 8.4936 4.6476 14.156 4.6476 5.5575 11.756 5.5575 7.4726 0 11.756-5.5575z"/><path d="m50.453 512.15v49.074h-6.1968v-49.074zm-0.09113-22.44q1.3669 1.468 1.3669 3.5652t-1.3669 3.5652q-1.2758 1.468-3.0073 1.468t-3.0984-1.468q-1.2758-1.468-1.2758-3.5652t1.2758-3.5652q1.3669-1.468 3.0984-1.468t3.0073 1.468z"/><path d="m85.43 512.15v5.977h-12.029v28.627q0 5.1381 1.6403 7.1304 1.6403 1.8875 4.7387 1.8875 2.6428 0 5.3767-1.5729l0.27339 6.1867q-3.3718 1.468-7.2904 1.468-4.3742 0-7.6549-2.9361-3.2807-2.9361-3.2807-10.171v-30.619h-8.8396v-5.977h8.8396v-13.841h6.1968v13.841z"/><path d="m100.72 520.22h0.18226q1.6403-4.1944 5.65-6.711 4.1008-2.6215 8.6573-2.6215 7.9283 0 12.029 5.4527 4.192 5.4527 4.192 14.785v30.095h-6.1968v-27.159q0-8.2839-2.6428-12.688-2.5516-4.509-8.9307-4.509-5.3766 0-9.2041 5.0332-3.7363 4.9284-3.7363 14.156v25.166h-6.1968v-79.274h6.1968z"/><path d="m173.61 531.13v-1.5729q0-12.688-11.391-12.688-7.6549 0-12.667 5.7672l-3.4629-4.7187q6.1057-7.0256 16.768-7.0256 7.2904 0 11.938 4.6138 4.6476 4.6138 4.6476 13.212v21.496q0 6.6061 0.72904 11.01h-5.5589q-0.63791-4.1944-0.63791-7.9693h-0.18226q-5.5589 9.2276-15.492 9.2276-5.7412 0-10.298-3.6701-4.4654-3.7749-4.4654-11.22 0-3.6701 1.0936-6.3964 1.0936-2.8312 3.2807-4.6138 2.1871-1.7826 4.7387-2.8312 2.5516-1.1535 6.288-1.6778 3.7363-0.62917 6.9259-0.73402 3.2807-0.20972 7.746-0.20972zm0 5.5575h-1.8226q-4.3742 0-7.8372 0.41944-3.3718 0.31458-6.8347 1.3632-3.3718 1.0486-5.2855 3.2506t-1.9137 5.5576q0 4.8235 2.9162 7.1304 2.9162 2.202 7.1081 2.202 6.288 0 9.9331-4.7187 3.7363-4.7187 3.7363-11.535z"/><path d="m200.93 512.15v49.074h-6.1968v-49.074zm-0.0912-22.44q1.367 1.468 1.367 3.5652t-1.367 3.5652q-1.2758 1.468-3.0073 1.468-1.7315 0-3.0984-1.468-1.2758-1.468-1.2758-3.5652t1.2758-3.5652q1.3669-1.468 3.0984-1.468 1.7315 0 3.0073 1.468z"/></g><g fill="#18405c" stroke-width=".54012"><path d="m-113.31 586.21v-12.92h-4.6882v-2.3765h12.099v2.3765h-4.6882v12.92z"/><path d="m-105.51 578.51q0-3.6296 2.2901-5.8117 2.3117-2.1821 5.8981-2.1821 3.6296 0 5.9413 2.1821 2.3117 2.1821 2.3117 5.8117 0 3.5648-2.3333 5.8333-2.3117 2.2469-5.9197 2.2469-3.5648 0-5.8765-2.2469-2.3117-2.2685-2.3117-5.8333zm2.9599 0q0 2.463 1.4691 4.0617 1.4691 1.5772 3.7808 1.5772 2.3333 0 3.8024-1.5772 1.4691-1.5988 1.4691-4.0617 0-2.3981-1.4691-3.9969-1.4475-1.5988-3.8024-1.5988-2.3333 0-3.8024 1.5988-1.4475 1.5988-1.4475 3.9969z"/><path d="m-86.435 586.21v-15.296h5.9629q1.9444 0 3.3055 0.95061 1.3827 0.95061 1.3827 2.895 0 1.2531-0.71296 2.1173-0.71296 0.86419-1.9444 1.2315v0.0432q1.4907 0.19444 2.3981 1.145 0.9074 0.95061 0.9074 2.463 0 1.1883-0.49691 2.0957-0.47531 0.88579-1.3179 1.3827t-1.8364 0.73457q-0.99382 0.23765-2.1389 0.23765zm2.7222-13.049v3.9753h2.4197q1.3611 0 2.0741-0.54012 0.71296-0.54012 0.71296-1.5339 0-1.0154-0.73456-1.4475-0.73456-0.4537-2.2901-0.4537zm0 6.3086v4.4506h2.4413q3.4136 0 3.4136-2.2901 0-1.1667-0.79938-1.6636t-2.5062-0.49691z"/><path d="m-74.315 586.21 6.6543-15.296h2.3549l6.5895 15.296h-3.1111l-1.4259-3.5h-6.6327l-1.3827 3.5zm5.358-5.8333h4.7531l-2.3549-6.2222z"/><path d="m-57.204 586.21v-15.296h4.9907q5.7685 0 5.7685 4.429 0 2.3765-1.642 3.4568-1.642 1.0802-4.2994 1.0802h-2.0957v6.3302zm2.7222-8.6203h1.9012q3.392 0 3.392-2.2469 0-1.2315-0.9074-1.6852-0.8858-0.4537-2.3981-0.4537h-1.9876z"/><path d="m-31.149 586.21v-15.296h2.7222v15.296zm-12.876 0v-15.296h2.7222v6.071h2.2685q2.5926 0 4.1697 1.145 1.5988 1.1451 1.5988 3.4568 0 2.2901-1.5988 3.4568-1.5772 1.1667-4.1265 1.1667zm2.7222-2.2901h2.0525q3.2407 0 3.2407-2.3117 0-1.1451-0.84259-1.7284-0.84259-0.60493-2.3981-0.60493h-2.0525z"/><path d="m8.8934 586.27v-15.296h2.7222v11.191h0.06481l7.1728-11.191h2.9383v15.296h-2.7222v-11.105h-0.04321l-7.1512 11.105z"/><path d="m29.483 586.66q-3.5864 0-5.574-2.2253l1.8364-1.8364q1.3611 1.75 3.608 1.75 1.2531 0 2.1821-0.66975 0.92901-0.69135 0.92901-1.858 0-2.2901-3.5864-2.2901h-1.0802v-2.2901h1.1234q3.1327 0 3.1327-2.2685 0-0.92901-0.82098-1.5123-0.79938-0.60493-1.858-0.60493-2.0309 0-3.1975 1.4475l-1.7068-1.6852q1.7932-2.0308 5.0555-2.0308 2.3765 0 3.8024 1.1018 1.4259 1.0802 1.4259 3.0031 0 1.3395-0.73456 2.2685-0.73456 0.929-1.9012 1.2315v0.0648q1.3827 0.32407 2.2685 1.2963 0.8858 0.97222 0.8858 2.4414 0 2.1821-1.7068 3.4352-1.6852 1.2315-4.0833 1.2315z"/><path d="m46.442 586.27v-12.92h-4.6882v-2.3765h12.099v2.3765h-4.6882v12.92z"/><path d="m52.47 586.27 6.6543-15.296h2.3549l6.5895 15.296h-3.1111l-1.4259-3.5h-6.6327l-1.3827 3.5zm5.358-5.8333h4.7531l-2.3549-6.2222z"/><path d="m69.581 586.27v-15.296h2.7222v11.191h0.0648l7.1728-11.191h2.9382v15.296h-2.7222v-11.105h-0.0432l-7.1512 11.105zm6.3518-16.506q-1.4043 0-2.3549-0.79938t-1.1234-2.2037l1.4475-0.28086q0.10802 0.73456 0.64814 1.1667 0.56173 0.43209 1.3827 0.43209t1.3611-0.43209q0.56173-0.4321 0.66975-1.1667l1.4691 0.28086q-0.19445 1.4043-1.1451 2.2037-0.929 0.79938-2.3549 0.79938z"/><path d="m86.13 586.42q-1.1018 0-1.8148-0.21605l0.28087-2.3981q0.4537 0.15123 0.929 0.15123 1.6204 0 2.3333-1.9012 0.73456-1.9012 0.73456-6.7191v-4.3642h10.522v15.296h-2.7222v-12.92h-5.1852v2.3549q0 5.6388-1.1883 8.1882-1.1667 2.5278-3.8889 2.5278z"/><path d="m100.63 586.27 6.6543-15.296h2.3549l6.5895 15.296h-3.1111l-1.4259-3.5h-6.6327l-1.3827 3.5zm5.358-5.8333h4.753l-2.3549-6.2222z"/><path d="m117.74 586.27v-15.296h2.7222v6.179h7.1512v-6.179h2.7222v15.296h-2.7222v-6.7839h-7.1512v6.7839z"/><path d="m132.32 589.75v-5.8981h1.2963q2.3333-2.6574 2.3333-8.9444v-3.9321h10.694v12.876h1.7068v5.8981h-2.4413v-3.4784h-11.148v3.4784zm4.3642-5.8981h7.2376v-10.5h-5.3364v1.8364q0 5.9197-1.9012 8.6635z"/><path d="m148.65 586.27 6.6543-15.296h2.3549l6.5895 15.296h-3.1111l-1.4259-3.5h-6.6327l-1.3827 3.5zm5.358-5.8333h4.7531l-2.3549-6.2222z"/></g></g></svg>
